<svg width="115" height="108" viewBox="0 0 115 108" fill="none" xmlns="http://www.w3.org/2000/svg">
<circle cx="57.5" cy="51.5" r="57.5" fill="#D9D9D9"/>
<g clip-path="url(#clip0_16_5)">
<path fill-rule="evenodd" clip-rule="evenodd" d="M57.5 8.83871C81.061 8.83871 100.161 27.9388 100.161 51.5C100.161 75.061 81.061 94.1613 57.5 94.1613C33.9388 94.1613 14.8387 75.061 14.8387 51.5C14.8387 27.9388 33.9388 8.83872 57.5 8.83871ZM57.5 8.83871C73.7574 8.83871 86.9363 22.0178 86.9363 38.275C86.9363 54.5324 73.7574 67.7113 57.5 67.7113C41.2428 67.7113 28.0637 54.5324 28.0637 38.275C28.0637 22.0178 41.2428 8.83872 57.5 8.83871ZM71.1516 38.275C71.1516 30.7354 65.0395 24.6234 57.5 24.6234C49.9604 24.6234 43.8484 30.7354 43.8484 38.275C43.8484 45.8146 49.9604 51.9266 57.5 51.9266C65.0395 51.9266 71.1516 45.8146 71.1516 38.275Z" fill="#092635"/>
</g>
<defs>
<clipPath id="clip0_16_5">
<rect width="85.3226" height="85.3226" fill="white" transform="translate(14.8387 8.83871)"/>
</clipPath>
</defs>
</svg>
