<svg width="117" height="39" viewBox="0 0 117 39" fill="none" xmlns="http://www.w3.org/2000/svg">
<path d="M31.3607 26.542H24.1327L22.9367 30H19.1147L25.6407 11.826H29.8787L36.4047 30H32.5567L31.3607 26.542ZM30.3727 23.63L27.7467 16.038L25.1207 23.63H30.3727ZM45.084 17.832C45.552 17.0693 46.1587 16.4713 46.904 16.038C47.6667 15.6047 48.5333 15.388 49.504 15.388V19.21H48.542C47.398 19.21 46.5313 19.4787 45.942 20.016C45.37 20.5533 45.084 21.4893 45.084 22.824V30H41.444V15.596H45.084V17.832ZM56.4017 13.88C55.7431 13.88 55.1971 13.6807 54.7637 13.282C54.3477 12.866 54.1397 12.3547 54.1397 11.748C54.1397 11.1413 54.3477 10.6387 54.7637 10.24C55.1971 9.824 55.7431 9.616 56.4017 9.616C57.0431 9.616 57.5717 9.824 57.9877 10.24C58.4037 10.6387 58.6117 11.1413 58.6117 11.748C58.6117 12.3547 58.4037 12.866 57.9877 13.282C57.5717 13.6807 57.0431 13.88 56.4017 13.88ZM58.1957 32.366C58.1957 33.9607 57.7971 35.1047 56.9997 35.798C56.2197 36.5087 55.0931 36.864 53.6197 36.864H52.0077V33.77H53.0477C53.6024 33.77 53.9924 33.6573 54.2177 33.432C54.4431 33.224 54.5557 32.8773 54.5557 32.392V15.596H58.1957V32.366ZM63.456 22.746C63.456 21.29 63.742 19.9987 64.314 18.872C64.9034 17.7453 65.692 16.8787 66.68 16.272C67.6854 15.6653 68.8034 15.362 70.034 15.362C71.1087 15.362 72.0447 15.5787 72.842 16.012C73.6567 16.4453 74.3067 16.9913 74.792 17.65V15.596H78.458V30H74.792V27.894C74.324 28.57 73.674 29.1333 72.842 29.584C72.0274 30.0173 71.0827 30.234 70.008 30.234C68.7947 30.234 67.6854 29.922 66.68 29.298C65.692 28.674 64.9034 27.7987 64.314 26.672C63.742 25.528 63.456 24.2193 63.456 22.746ZM74.792 22.798C74.792 21.914 74.6187 21.16 74.272 20.536C73.9254 19.8947 73.4574 19.4093 72.868 19.08C72.2787 18.7333 71.646 18.56 70.97 18.56C70.294 18.56 69.67 18.7247 69.098 19.054C68.526 19.3833 68.058 19.8687 67.694 20.51C67.3474 21.134 67.174 21.8793 67.174 22.746C67.174 23.6127 67.3474 24.3753 67.694 25.034C68.058 25.6753 68.526 26.1693 69.098 26.516C69.6874 26.8627 70.3114 27.036 70.97 27.036C71.646 27.036 72.2787 26.8713 72.868 26.542C73.4574 26.1953 73.9254 25.71 74.272 25.086C74.6187 24.4447 74.792 23.682 74.792 22.798ZM98.3931 15.596L89.4751 36.812H85.6011L88.7211 29.636L82.9491 15.596H87.0311L90.7491 25.658L94.5191 15.596H98.3931Z" fill="#F6F4EB"/>
<g clip-path="url(#clip0_4_32)">
<path fill-rule="evenodd" clip-rule="evenodd" d="M56 0C59.866 -1.68988e-07 63 3.13401 63 7C63 10.866 59.866 14 56 14C52.134 14 49 10.866 49 7C49 3.13401 52.134 1.68988e-07 56 0ZM56 0C58.6676 -1.16602e-07 60.83 2.16246 60.83 4.83C60.83 7.49756 58.6676 9.66 56 9.66C53.3325 9.66 51.17 7.49756 51.17 4.83C51.17 2.16246 53.3325 1.16602e-07 56 0ZM58.24 4.83C58.24 3.59288 57.2371 2.59 56 2.59C54.7629 2.59 53.76 3.59288 53.76 4.83C53.76 6.06712 54.7629 7.07 56 7.07C57.2371 7.07 58.24 6.06712 58.24 4.83Z" fill="#F6F4EB"/>
</g>
<defs>
<clipPath id="clip0_4_32">
<rect width="14" height="14" fill="white" transform="translate(49)"/>
</clipPath>
</defs>
</svg>
